<?xml version="1.0" standalone="no"?>
<!DOCTYPE svg PUBLIC "-//W3C//DTD SVG 20010904//EN"
 "http://www.w3.org/TR/2001/REC-SVG-20010904/DTD/svg10.dtd">
<svg version="1.0" xmlns="http://www.w3.org/2000/svg"
 width="128.000000pt" height="128.000000pt" viewBox="0 0 128.000000 128.000000"
 preserveAspectRatio="xMidYMid meet">
<metadata>
Created by potrace 1.14, written by Peter Selinger 2001-2017
</metadata>
<g transform="translate(0.000000,128.000000) scale(0.100000,-0.100000)"
fill="#000000" stroke="none">
<path d="M265 1270 c-3 -5 -4 -13 -1 -18 2 -4 7 -27 11 -51 6 -38 1 -54 -42
-140 -43 -85 -48 -103 -48 -161 0 -75 20 -125 71 -173 27 -25 34 -39 34 -68 0
-21 9 -58 20 -84 43 -99 30 -183 -43 -293 -16 -23 -39 -66 -52 -95 -42 -91
-43 -219 -2 -178 16 16 838 16 854 0 22 -22 34 1 29 58 -4 39 -12 62 -26 76
-15 13 -20 27 -16 41 4 16 -8 44 -37 92 -58 93 -69 125 -70 187 0 61 58 229
102 292 66 95 66 169 -2 305 -47 95 -51 113 -32 181 7 30 -10 48 -28 30 -15
-15 -683 -16 -692 -1 -3 6 -10 10 -15 10 -5 0 -12 -4 -15 -10z"/>
</g>
</svg>
